# Made in Blockbench 4.8.3
mtllib large.mtl

o cube
v -1.1102230246251565e-16 1.1102230246251565e-16 1
v -1.1102230246251565e-16 1.1102230246251565e-16 0
v 1 0 1
v 1 0 0
v 1.632908994701043 -0.0006250000000001601 -1.1955181300450857
v 2.1955181300450675 -0.0006250000000001601 -0.6329089947010038
v 0.8978247347593005 -0.0006250000000000491 -1.4999999999999298
v 1.632908994701043 -0.0006250000000001601 2.195518130045084
v 2.1955181300450675 -0.0006250000000001601 1.6329089947010016
v 2.4999999999999485 -0.0006250000000001601 0.10217526524069731
v 2.4999999999999485 -0.0006250000000001601 0.8978247347593004
v -1.195518130045068 -0.0006249999999999381 -0.6329089947010034
v 0.10217526524069948 -0.0006250000000000491 -1.4999999999999294
v -0.6329089947010429 -0.0006249999999999381 2.195518130045084
v -1.195518130045068 -0.0006249999999999381 1.6329089947010016
v -1.499999999999949 -0.0006249999999999381 0.10217526524069731
v -1.4999999999999485 -0.0006249999999999381 0.8978247347593004
v -0.6329089947010433 -0.0006249999999999381 -1.1955181300450857
v 1 1 1
v 1 1 0
v 0 1 1
v 0 1 0
v -0.6329089947010429 1.000625 -1.1955181300450888
v -1.1955181300450675 1.000625 -0.6329089947010056
v 0.10217526524069881 1.000625 -1.4999999999999316
v 0.10217526524069881 1.000625 2.499999999999931
v -0.6329089947010429 1.000625 2.195518130045085
v -1.1955181300450675 1.000625 1.632908994701004
v -1.4999999999999498 1.000625 0.10217526524069698
v -1.4999999999999498 1.000625 0.8978247347593011
v 2.195518130045068 1.000625 -0.6329089947010047
v 0.8978247347593011 1.000625 -1.4999999999999316
v 0.8978247347593011 1.000625 2.49999999999993
v 1.632908994701043 1.000625 2.195518130045085
v 2.195518130045068 1.000625 1.632908994701004
v 2.49999999999995 1.000625 0.10217526524069698
v 2.4999999999999494 1.000625 0.8978247347593011
v 1.6329089947010433 1.000625 -1.1955181300450888
v 0.10217526524069948 -0.0006250000000000491 2.499999999999927
v 0.8978247347593005 -0.0006250000000000491 2.499999999999928
vt 0.15625 0.84375
vt 0.15625 0.90625
vt 0.09375 0.90625
vt 0.09375 0.84375
vt 0.15625000000000003 0.84375
vt 0.25 0.8501359374999999
vt 0.25 0.8998640625000001
vt 0.15625 0.90625
vt 0.1001359375 1
vt 0.09375 0.90625
vt 0.15625 0.90625
vt 0.1498640625 1
vt 0 0.8501359374999999
vt 0.09374999999999999 0.84375
vt 0.09374999999999996 0.90625
vt 0 0.8998640625
vt 0.1498640625 0.75
vt 0.15625 0.84375
vt 0.09375 0.84375
vt 0.1001359375 0.75
vt 0.25066956264230034 0.8497920602939858
vt 0.15691963306835213 0.8434062783899812
vt 0.14955728866434753 0.749656348816033
vt 0.14955751124167496 0.7498796288428722
vt 0.1966719920677525 0.7689096400915552
vt 0.2318350864709448 0.8040727344947475
vt 0.25047447271962775 0.850015340320825
vt 0.15625 0.90625
vt 0.2500400339359514 0.8993713014715293
vt 0.1506906202474747 1
vt 0.09375 0.90625
vt 0.099609375 1
vt 0 0.9005599845838564
vt 0.10048274527160389 0.749656348816033
vt 0.09351102586759927 0.8434062783899812
vt 0 0.8497920602939858
vt 0 0.8492705433032777
vt 0.019030078125000023 0.8033279651782778
vt 0.054193359375000034 0.7681646839282777
vt 0.10013593750000002 0.7501111683032777
vt 0.019341182065723515 0.9454581539785671
vt 0 0.8998157615810447
vt 0.10013603663962747 0.9999517982206723
vt 0.054193014087288695 0.9809215229917511
vt 0.19709793771168904 0.9801710582504939
vt 0.1505178713283286 1
vt 0.2488909603129068 0.8991082467952523
vt 0.23164211889399305 0.9443996750082118
vt 0.15625 0.84375
vt 0.15625 0.90625
vt 0.09375 0.90625
vt 0.09375 0.84375
vt 0.4037703125 0.925859375
vt 0.3540421875 0.925859375
vt 0.3540421875 0.86328125
vt 0.4037703125 0.86328125
vt 0.45349843749999996 0.86328125
vt 0.45349843749999996 0.925859375
vt 0.4037703125 0.925859375
vt 0.4037703125 0.86328125
vt 0.5032265625 0.86328125
vt 0.5032265625 0.925859375
vt 0.45349843749999996 0.925859375
vt 0.45349843749999996 0.86328125
vt 0.0513078125 0.6796875
vt 0.0513078125 0.742265625
vt 0.00157968750000001 0.742265625
vt 0.00157968750000001 0.6796875
vt 0.1010359375 0.6796875
vt 0.1010359375 0.742265625
vt 0.0513078125 0.742265625
vt 0.0513078125 0.6796875
vt 0.1507640625 0.742265625
vt 0.1010359375 0.742265625
vt 0.1010359375 0.6796875
vt 0.1507640625 0.6796875
vt 0.29259531250000004 0.996171875
vt 0.2428671875 0.996171875
vt 0.2428671875 0.93359375
vt 0.29259531250000004 0.93359375
vt 0.3423234375 0.996171875
vt 0.29259531250000004 0.996171875
vt 0.29259531250000004 0.93359375
vt 0.3423234375 0.93359375
vt 0.3920515625 0.93359375
vt 0.3920515625 0.996171875
vt 0.3423234375 0.996171875
vt 0.3423234375 0.93359375
vt 0.44177968749999996 0.93359375
vt 0.44177968749999996 0.996171875
vt 0.3920515625 0.996171875
vt 0.3920515625 0.93359375
vt 0.4915078125 0.93359375
vt 0.4915078125 0.996171875
vt 0.44177968749999996 0.996171875
vt 0.44177968749999996 0.93359375
vt 0.0513078125 0.671953125
vt 0.00157968750000001 0.671953125
vt 0.00157968750000001 0.609375
vt 0.0513078125 0.609375
vt 0.1010359375 0.671953125
vt 0.0513078125 0.671953125
vt 0.0513078125 0.609375
vt 0.1010359375 0.609375
vt 0.1507640625 0.671953125
vt 0.1010359375 0.671953125
vt 0.1010359375 0.609375
vt 0.1507640625 0.609375
vt 0.30431406250000004 0.86328125
vt 0.30431406250000004 0.925859375
vt 0.2545859375 0.925859375
vt 0.2545859375 0.86328125
vt 0.3540421875 0.925859375
vt 0.30431406250000004 0.925859375
vt 0.30431406250000004 0.86328125
vt 0.3540421875 0.86328125
vt 0.15625000000000158 0.8437500000000157
vt 0.24999999999999842 0.8501359541166187
vt 0.24999999999999845 0.8998640459615065
vt 0.15625000000000158 0.9062499999999843
vt 0.101524261033265 1
vt 0.09513830695572137 0.9062499999609887
vt 0.15763830695572137 0.9062499999609887
vt 0.1512523528781777 1
vt 0 0.85013595413615
vt 0.09374999999999685 0.8437500000195469
vt 0.09374999999999685 0.9062500000195156
vt 0 0.8998640459810378
vt 0.1498640459224563 0.7500000000195569
vt 0.15625 0.8437499999804432
vt 0.09375 0.8437499999804432
vt 0.10013595407754369 0.7500000000195568
vt 0.24945534683043696 0.850680997872078
vt 0.15570534683044013 0.844295043755475
vt 0.14931939275289643 0.7505450437945888
vt 0.14914651342977445 0.7500950715552142
vt 0.19508927967613332 0.7691251884273824
vt 0.23025235063513486 0.8042882593863698
vt 0.24928246750731498 0.8502310256327033
vt 0.1576031950999154 0.9062499999609887
vt 0.2513531950999123 0.8998640459225108
vt 0.15121724102237177 1
vt 0.0937499999999969 0.9062499999609887
vt 0.10013595407754054 1
vt 0 0.8998640459225108
vt 0.10013595407754054 0.7505450437945886
vt 0.09374999999999688 0.8442950437554749
vt 0 0.850680997872078
vt 0 0.8505990672170224
vt 0.01903011687218016 0.8046563009706889
vt 0.05419318783118167 0.7694932300117014
vt 0.10013595407754054 0.7504631131395331
vt 0.01903011687218014 0.9458068121688442
vt 0 0.8998640459225108
vt 0.10013595407754056 1
vt 0.054193187831181676 0.9809698831278318
vt 0.19705263626931796 0.9809698831278318
vt 0.1511098700229591 1
vt 0.2512458241004996 0.8998640459225108
vt 0.23221570722831952 0.9458068121688441
vn -1.1102230246251565e-16 -1 0
vn 0.000416666630497737 -0.9999999131944559 -2.725325963019278e-19
vn -1.1102229282516945e-16 -0.9999999131944558 0.00041666663049774966
vn -0.00041666663049781097 -0.9999999131944558 0
vn -1.1102229282516964e-16 -0.9999999131944558 -0.0004166666304978093
vn 0.0004471232047258161 -0.9999998000808198 -0.00044712320472589136
vn -2.578302049505239e-16 -1 2.5783020495049765e-16
vn 0.00044712320472581525 -0.9999998000808198 0.00044712320472589065
vn -0.0004471232047258847 -0.9999998000808198 0.00044712320472582116
vn -0.0004471232047258854 -0.9999998000808198 -0.00044712320472582175
vn 0 -1 0
vn -1.1829350353143335e-16 -1 4.8998773503355545e-17
vn -2.088314314472029e-16 -1 -1.3953670141912638e-16
vn 0 1 0
vn 1 -8.870695827217235e-16 5.581468056765653e-16
vn 0.9238795325112693 -7.492395483576103e-16 -0.3826834323651321
vn 0.707106781186585 -2.509011669307306e-15 -0.7071067811865102
vn 0.3826834323650723 -1.893690987276819e-15 -0.9238795325112942
vn 0 -2.2176739568043076e-15 -1
vn -0.3826834323650724 -2.299481221888362e-15 -0.923879532511294
vn -0.7071067811865844 -1.88139372699976e-15 -0.7071067811865107
vn -0.9238795325112692 -4.529281194628713e-16 -0.3826834323651322
vn -1 -1.3306043740825843e-15 0
vn -0.9238795325112694 -5.237610741273436e-16 0.38268343236513214
vn -0.7071067811865829 -6.272529173268202e-16 0.7071067811865123
vn -0.3826834323650761 -8.361749897775849e-16 0.9238795325112924
vn 1.6744404170296998e-15 -3.991813122247752e-15 1
vn 0.38268343236507485 -1.8813937269995673e-15 0.9238795325112932
vn 0.7071067811865825 -2.038571981312197e-15 0.7071067811865125
vn 0.9238795325112699 -1.3587843583886141e-15 0.38268343236513114
vn -0.00041666663049776917 0.9999999131944559 -2.725325963019272e-19
vn 0 0.9999999131944558 0.00041666663049777405
vn 0.00041666663049776896 0.9999999131944558 0
vn 0 0.9999999131944558 -0.00041666663049777454
vn -0.00044712320472584517 0.9999998000808198 -0.0004471232047258507
vn 0 1 0
vn -0.0004471232047258444 0.9999998000808198 0.00044712320472585
vn 0.0004471232047258444 0.9999998000808198 0.00044712320472585
vn 0.00044712320472584495 0.9999998000808198 -0.0004471232047258502
vn 0 1 0
vn 0 1 0
vn 0 1 0
usemtl m_7fcce498-fb1a-4e17-e41d-00d8ffcf4d4a
f 1/1/1 2/2/1 4/3/1 3/4/1
f 1/5/2 17/6/2 16/7/2 2/8/2
f 7/9/3 4/10/3 2/11/3 13/12/3
f 11/13/4 3/14/4 4/15/4 10/16/4
f 39/17/5 1/18/5 3/19/5 40/20/5
f 17/21/6 1/22/6 39/23/6
f 39/24/7 14/25/7 15/26/7 17/27/7
f 2/28/8 16/29/8 13/30/8
f 4/31/9 7/32/9 10/33/9
f 40/34/10 3/35/10 11/36/10
f 11/37/11 9/38/11 8/39/11 40/40/11
f 6/41/12 10/42/12 7/43/12 5/44/12
f 18/45/13 13/46/13 16/47/13 12/48/13
f 19/49/14 20/50/14 22/51/14 21/52/14
f 36/53/15 37/54/15 11/55/15 10/56/15
f 6/57/16 31/58/16 36/59/16 10/60/16
f 5/61/17 38/62/17 31/63/17 6/64/17
f 7/65/18 32/66/18 38/67/18 5/68/18
f 13/69/19 25/70/19 32/71/19 7/72/19
f 23/73/20 25/74/20 13/75/20 18/76/20
f 24/77/21 23/78/21 18/79/21 12/80/21
f 29/81/22 24/82/22 12/83/22 16/84/22
f 17/85/23 30/86/23 29/87/23 16/88/23
f 15/89/24 28/90/24 30/91/24 17/92/24
f 14/93/25 27/94/25 28/95/25 15/96/25
f 26/97/26 27/98/26 14/99/26 39/100/26
f 33/101/27 26/102/27 39/103/27 40/104/27
f 34/105/28 33/106/28 40/107/28 8/108/28
f 9/109/29 35/110/29 34/111/29 8/112/29
f 37/113/30 35/114/30 9/115/30 11/116/30
f 19/117/31 37/118/31 36/119/31 20/120/31
f 25/121/32 22/122/32 20/123/32 32/124/32
f 30/125/33 21/126/33 22/127/33 29/128/33
f 33/129/34 19/130/34 21/131/34 26/132/34
f 37/133/35 19/134/35 33/135/35
f 33/136/36 34/137/36 35/138/36 37/139/36
f 20/140/37 36/141/37 32/142/37
f 22/143/38 25/144/38 29/145/38
f 26/146/39 21/147/39 30/148/39
f 30/149/40 28/150/40 27/151/40 26/152/40
f 24/153/41 29/154/41 25/155/41 23/156/41
f 38/157/42 32/158/42 36/159/42 31/160/42