# Made in Blockbench 5.1.4
mtllib base_boiler.mtl

o tube
v 0.4142135623730951 0 1
v 0.4142135623730951 1 1
v 0.36258637758291035 0 0.875360950292394
v 0.36258637758291035 1 0.875360950292394
v 1 0 0.41421356237309515
v 1 1 0.41421356237309515
v 0.875360950292394 0 0.3625863775829104
v 0.875360950292394 1 0.3625863775829104
v 1 0 -0.41421356237309503
v 1 1 -0.41421356237309503
v 0.875360950292394 0 -0.3625863775829103
v 0.875360950292394 1 -0.3625863775829103
v 0.4142135623730952 0 -1
v 0.4142135623730952 1 -1
v 0.36258637758291046 0 -0.875360950292394
v 0.36258637758291046 1 -0.875360950292394
v -0.414213562373095 0 -1.0000000000000002
v -0.414213562373095 1 -1.0000000000000002
v -0.36258637758291024 0 -0.8753609502923941
v -0.36258637758291024 1 -0.8753609502923941
v -0.9999999999999998 0 -0.4142135623730957
v -0.9999999999999998 1 -0.4142135623730957
v -0.8753609502923938 0 -0.36258637758291085
v -0.8753609502923938 1 -0.36258637758291085
v -0.9999999999999999 0 0.4142135623730953
v -0.9999999999999999 1 0.4142135623730953
v -0.8753609502923939 0 0.3625863775829105
v -0.8753609502923939 1 0.3625863775829105
v -0.41421356237309576 0 0.9999999999999998
v -0.41421356237309576 1 0.9999999999999998
v -0.3625863775829109 0 0.8753609502923938
v -0.3625863775829109 1 0.8753609502923938
v 0.5 1 0.5
v 0.5 1 -0.5
v 0.4999999999999976 0 -0.4999999999999973
v -0.49999999999999717 0 -0.4999999999999975
v -0.5 1 0.5
v -0.5 1 -0.5
v 0.4999999999999974 0 0.4999999999999975
v -0.4999999999999974 0 0.4999999999999973
vt 0.0078125 0.75
vt 0.2109375 0.75
vt 0.2109375 1
vt 0.0078125 1
vt 0.0187662834653457 0.718840625
vt 0.20005962332681165 0.718840625
vt 0.21296653179215735 0.7499997272547234
vt 0.005859375 0.7499997272547234
vt 0.005859375 0.7499997272547234
vt 0.21296653179215735 0.7499997272547234
vt 0.20005962332681165 0.718840625
vt 0.018766283465345715 0.718840625
vt 0.0078125 0.75
vt 0.2109375 0.75
vt 0.2109375 1
vt 0.0078125 1
vt 0.018765625000000008 0.718840625
vt 0.20005937499999998 0.718840625
vt 0.212965625 0.75
vt 0.005859375 0.75
vt 0.21296562499999996 0.75
vt 0.005859375 0.75
vt 0.018765624999999994 0.718840625
vt 0.20005937499999998 0.718840625
vt 0.0078125 0.75
vt 0.2109375 0.75
vt 0.2109375 1
vt 0.0078125 1
vt 0.20005962332681165 0.718840625
vt 0.018766283465345715 0.718840625
vt 0.005859375 0.7499997272547234
vt 0.21296653179215735 0.7499997272547234
vt 0.21296653179215733 0.7499997272547234
vt 0.005859375 0.7499997272547234
vt 0.018766283465345715 0.718840625
vt 0.20005962332681165 0.718840625
vt 0.0078125 0.75
vt 0.2109375 0.75
vt 0.2109375 1
vt 0.0078125 1
vt 0.20005937499999998 0.718840625
vt 0.018765624999999994 0.718840625
vt 0.005859375 0.75
vt 0.212965625 0.75
vt 0.212965625 0.75
vt 0.005859375 0.75
vt 0.018765624999999994 0.718840625
vt 0.20005937499999998 0.718840625
vt 0.0078125 0.75
vt 0.2109375 0.75
vt 0.2109375 1
vt 0.0078125 1
vt 0.20005962332681165 0.7188408977452765
vt 0.0187662834653457 0.7188408977452765
vt 0.005859375 0.75
vt 0.21296653179215735 0.75
vt 0.21296653179215735 0.75
vt 0.005859375 0.75
vt 0.018766283465345715 0.7188408977452765
vt 0.20005962332681165 0.7188408977452765
vt 0.0078125 0.75
vt 0.2109375 0.75
vt 0.2109375 1
vt 0.0078125 1
vt 0.20005937499999998 0.718840625
vt 0.018765625000000008 0.718840625
vt 0.005859375 0.75
vt 0.212965625 0.75
vt 0.005859375 0.75
vt 0.21296562499999996 0.75
vt 0.20005937499999998 0.718840625
vt 0.018765624999999994 0.718840625
vt 0.0078125 0.75
vt 0.2109375 0.75
vt 0.2109375 1
vt 0.0078125 1
vt 0.018766283465345715 0.7188408977452765
vt 0.20005962332681165 0.7188408977452765
vt 0.21296653179215735 0.75
vt 0.005859375 0.75
vt 0.005859375 0.75
vt 0.21296653179215733 0.75
vt 0.20005962332681165 0.7188408977452766
vt 0.018766283465345715 0.7188408977452766
vt 0.0078125 0.75
vt 0.2109375 0.75
vt 0.2109375 1
vt 0.0078125 1
vt 0.018765624999999994 0.718840625
vt 0.20005937499999998 0.718840625
vt 0.212965625 0.75
vt 0.005859375 0.75
vt 0.005859375 0.75
vt 0.212965625 0.75
vt 0.20005937499999998 0.718840625
vt 0.018765624999999994 0.718840625
vt 0.578125 0.890625
vt 0.328125 0.890625
vt 0.328125 0.640625
vt 0.578125 0.640625
vt 0.3625686431773708 0.5466110443226933
vt 0.32821523757309845 0.6404512818957449
vt 0.234375 0.6748046875
vt 0.5782987181042725 0.640451281895745
vt 0.5439453125 0.5466110443226934
vt 0.6721389556773708 0.6748046875
vt 0.32821523757309856 0.8905347624269485
vt 0.3625686431773709 0.984375
vt 0.2343750000000001 0.8561813568226933
vt 0.578125 0.890534375
vt 0.543771875 0.984375
vt 0.362478125 0.984375
vt 0.328125 0.890534375
vt 0.234375 0.674978125
vt 0.328215625 0.640625
vt 0.328215625 0.890625
vt 0.234375 0.856271875
vt 0.543771875 0.546784375
vt 0.578125 0.640625
vt 0.328125 0.640625
vt 0.362478125 0.546784375
vt 0.671965625 0.856271875
vt 0.578125 0.890625
vt 0.578125 0.640625
vt 0.671965625 0.674978125
vt 0.5782987181042717 0.8905347624269477
vt 0.6721389556773709 0.8561813568226933
vt 0.5439453125 0.984375
vt 0.3282152375730991 0.8905347624269477
vt 0.3625686431773709 0.984375
vt 0.234375 0.8561813568226931
vt 0.3282152375730991 0.6404512818957455
vt 0.234375 0.6748046875
vt 0.3625686431773709 0.5466110443226933
vt 0.5782987181042716 0.6404512818957455
vt 0.5439453125 0.5466110443226933
vt 0.6721389556773707 0.6748046875
vt 0.362478125 0.546784375
vt 0.543771875 0.546784375
vt 0.578125 0.640625
vt 0.328125 0.640625
vt 0.328215625 0.890625
vt 0.234375 0.856271875
vt 0.234375 0.674978125
vt 0.328215625 0.640625
vt 0.6719656249999999 0.856271875
vt 0.5781249999999999 0.890625
vt 0.5781249999999999 0.640625
vt 0.6719656249999999 0.674978125
vt 0.578125 0.890625
vt 0.328125 0.890625
vt 0.328125 0.640625
vt 0.578125 0.640625
vt 0.362478125 0.984375
vt 0.328125 0.890534375
vt 0.578125 0.890534375
vt 0.543771875 0.984375
vt 0.5439453125 0.984375
vt 0.5782987181042722 0.8905347624269484
vt 0.6721389556773707 0.8561813568226933
vn 0.7071067811865476 0 0.7071067811865476
vn 0 -1 0
vn 0 1 0
vn 1 0 0
vn 0 -1 0
vn 0 1 0
vn 0.7071067811865476 0 -0.7071067811865475
vn 0 -1 0
vn 0 1 0
vn 2.6803154833089315e-16 0 -1
vn 0 -1 0
vn 0 1 0
vn -0.7071067811865474 0 -0.7071067811865477
vn 0 -1 0
vn 0 1 0
vn -1 0 -1.3401577416544645e-16
vn 0 -1 0
vn 0 1 0
vn -0.7071067811865477 0 0.7071067811865474
vn 0 -1 0
vn 0 1 0
vn -2.680315483308929e-16 0 1
vn 0 -1 0
vn 0 1 0
vn 0 -1 0
vn 0 1 0
vn 0 1 0
vn 0 1 0
vn 0 -1 0
vn 0 -1 0
vn 0 -1 0
vn 0 -1 0
vn 0 -1 0
vn 0 -1 0
vn 0 -1 0
vn 0 -1 0
vn 0 1 0
vn 0 1 0
vn 0 1 0
vn 0 1 0
vn 0 1 0
vn 0 1 0
usemtl m_d16c851f-2f37-98f8-f0ce-790bba097982
f 1/1/1 5/2/1 6/3/1 2/4/1
f 3/5/2 7/6/2 5/7/2 1/8/2
f 2/9/3 6/10/3 8/11/3 4/12/3
f 5/13/4 9/14/4 10/15/4 6/16/4
f 7/17/5 11/18/5 9/19/5 5/20/5
f 6/21/6 10/22/6 12/23/6 8/24/6
f 9/25/7 13/26/7 14/27/7 10/28/7
f 11/29/8 15/30/8 13/31/8 9/32/8
f 10/33/9 14/34/9 16/35/9 12/36/9
f 13/37/10 17/38/10 18/39/10 14/40/10
f 15/41/11 19/42/11 17/43/11 13/44/11
f 14/45/12 18/46/12 20/47/12 16/48/12
f 17/49/13 21/50/13 22/51/13 18/52/13
f 19/53/14 23/54/14 21/55/14 17/56/14
f 18/57/15 22/58/15 24/59/15 20/60/15
f 21/61/16 25/62/16 26/63/16 22/64/16
f 23/65/17 27/66/17 25/67/17 21/68/17
f 22/69/18 26/70/18 28/71/18 24/72/18
f 25/73/19 29/74/19 30/75/19 26/76/19
f 27/77/20 31/78/20 29/79/20 25/80/20
f 26/81/21 30/82/21 32/83/21 28/84/21
f 29/85/22 1/86/22 2/87/22 30/88/22
f 31/89/23 3/90/23 1/91/23 29/92/23
f 30/93/24 2/94/24 4/95/24 32/96/24
f 36/97/25 35/98/25 39/99/25 40/100/25
f 16/101/26 34/102/26 12/103/26
f 38/104/27 20/105/27 24/106/27
f 33/107/28 4/108/28 8/109/28
f 36/110/29 19/111/29 15/112/29 35/113/29
f 7/114/30 39/115/30 35/116/30 11/117/30
f 31/118/31 40/119/31 39/120/31 3/121/31
f 23/122/32 36/123/32 40/124/32 27/125/32
f 36/126/33 23/127/33 19/128/33
f 35/129/34 15/130/34 11/131/34
f 39/132/35 7/133/35 3/134/35
f 40/135/36 31/136/36 27/137/36
f 16/138/37 20/139/37 38/140/37 34/141/37
f 33/142/38 8/143/38 12/144/38 34/145/38
f 28/146/39 37/147/39 38/148/39 24/149/39
f 37/150/40 33/151/40 34/152/40 38/153/40
f 4/154/41 33/155/41 37/156/41 32/157/41
f 32/158/42 37/159/42 28/160/42